HIERARCHY
ROOT Hips
{
    OFFSET 0.000000 0.000000 0.000000
    CHANNELS 6 Xposition Yposition Zposition Zrotation Xrotation Yrotation
    JOINT Spine
    {
        OFFSET -0.000000 8.104110 0.000000
        CHANNELS 3 Zrotation Xrotation Yrotation
        JOINT Spine1
        {
            OFFSET -0.000000 22.417536 0.000000
            CHANNELS 3 Zrotation Xrotation Yrotation
            JOINT Neck
            {
                OFFSET -0.000000 22.325472 2.029588
                CHANNELS 3 Zrotation Xrotation Yrotation
                JOINT Head
                {
                    OFFSET -0.000000 13.836284 -1.976612
                    CHANNELS 3 Zrotation Xrotation Yrotation
                    End Site
                    {
                        OFFSET -0.000000 24.707651 0.000000
                    }
                }
            }
            JOINT LeftShoulder
            {
                OFFSET 3.973640 20.379602 -0.279950
                CHANNELS 3 Zrotation Xrotation Yrotation
                JOINT LeftArm
                {
                    OFFSET 11.493720 0.000000 0.000000
                    CHANNELS 3 Zrotation Xrotation Yrotation
                    JOINT LeftForeArm
                    {
                        OFFSET 31.336695 0.000000 0.000000
                        CHANNELS 3 Zrotation Xrotation Yrotation
                        JOINT LeftHand
                        {
                            OFFSET 29.043781 0.000000 0.000000
                            CHANNELS 3 Zrotation Xrotation Yrotation
                            End Site
                            {
                                OFFSET 14.824592 0.000000 0.000000
                            }
                        }
                    }
                }
            }
            JOINT RightShoulder
            {
                OFFSET -3.921018 20.379602 -0.279950
                CHANNELS 3 Zrotation Xrotation Yrotation
                JOINT RightArm
                {
                    OFFSET -11.493720 0.000000 0.000000
                    CHANNELS 3 Zrotation Xrotation Yrotation
                    JOINT RightForeArm
                    {
                        OFFSET -31.336695 0.000000 0.000000
                        CHANNELS 3 Zrotation Xrotation Yrotation
                        JOINT RightHand
                        {
                            OFFSET -29.043781 0.000000 0.000000
                            CHANNELS 3 Zrotation Xrotation Yrotation
                            End Site
                            {
                                OFFSET -14.824592 0.000000 0.000000
                            }
                        }
                    }
                }
            }
        }
    }
    JOINT LeftUpLeg
    {
        OFFSET 9.883060 0.000000 0.000000
        CHANNELS 3 Zrotation Xrotation Yrotation
        JOINT LeftLeg
        {
            OFFSET -0.000000 -43.587502 0.000000
            CHANNELS 3 Zrotation Xrotation Yrotation
            JOINT LeftFoot
            {
                OFFSET -0.000000 -41.501083 0.000000
                CHANNELS 3 Zrotation Xrotation Yrotation
                JOINT LeftToeBase
                {
                    OFFSET -0.000000 -6.423989 14.824592
                    CHANNELS 3 Zrotation Xrotation Yrotation
                    End Site
                    {
                        OFFSET -0.000000 0.000000 3.953224
                    }
                }
            }
        }
    }
    JOINT RightUpLeg
    {
        OFFSET -9.883060 0.000000 0.000000
        CHANNELS 3 Zrotation Xrotation Yrotation
        JOINT RightLeg
        {
            OFFSET -0.000000 -43.587502 0.000000
            CHANNELS 3 Zrotation Xrotation Yrotation
            JOINT RightFoot
            {
                OFFSET -0.000000 -41.501083 0.000000
                CHANNELS 3 Zrotation Xrotation Yrotation
                JOINT RightToeBase
                {
                    OFFSET -0.000000 -6.423989 14.824592
                    CHANNELS 3 Zrotation Xrotation Yrotation
                    End Site
                    {
                        OFFSET -0.000000 0.000000 3.953224
                    }
                }
            }
        }
    }
}
MOTION
Frames:    10
Frame Time:    0.008333
2.219192    92.399834    -15.132936    -0.249223    -3.380306    175.461899    -0.928867    -10.656347    0.499979    5.388336    14.116791    -0.081099    -3.419059    8.717891    3.229347    -3.753764    9.320144    3.370440    -4.048705    12.648558    -3.831704    -39.686760    66.939545    -29.327785    -12.195926    -36.109524    -37.129547    -12.185796    -37.940838    -16.921928    1.019257    18.637861    -1.492323    44.043697    62.333443    25.929920    1.515163    -34.692219    29.414909    24.421143    -31.567621    18.902206    0.524945    -29.495777    -7.019247    2.542065    25.718769    -5.371906    -8.643402    -0.455250    6.205682    0.000000    0.000000    0.000000    -2.196378    2.705015    12.043208    5.115348    9.101479    7.130399    -8.820082    -17.031771    -23.417095    0.000000    0.000000    0.000000    
2.157002    92.341713    -15.427462    -0.231803    -3.529447    175.173264    -0.959897    -10.666349    0.531671    5.468256    14.163922    -0.058517    -3.343547    8.642330    3.440151    -3.981444    9.413005    3.576289    -4.011938    12.585067    -3.931235    -39.878525    66.911003    -29.212746    -12.125017    -36.109543    -37.084236    -12.186892    -37.946785    -16.581884    0.994705    18.603199    -1.506263    43.753281    62.349815    26.188177    1.457616    -34.683659    29.261557    24.661905    -31.484768    19.024843    0.424151    -29.591919    -7.202738    2.997816    24.553009    -6.399474    -8.606114    0.501321    6.146495    0.000000    0.000000    0.000000    -2.227498    2.612946    12.225056    5.099689    9.309209    7.201900    -8.823066    -17.254343    -23.377651    0.000000    0.000000    0.000000    
2.114842    92.279961    -15.736422    -0.151202    -3.628716    174.880112    -0.942177    -10.611538    0.566765    5.523395    14.209897    -0.034718    -3.165612    8.750596    3.642360    -4.373538    9.127446    3.736219    -4.000004    12.673635    -3.999543    -39.406551    66.840981    -29.581989    -12.392559    -36.125202    -37.253281    -12.671406    -37.941536    -17.162544    1.040422    18.547657    -1.581522    43.457790    62.292770    26.427282    1.543172    -34.627247    29.210823    24.704714    -31.465149    18.885168    0.431758    -29.661158    -7.193074    3.281396    23.554323    -7.097231    -8.118932    1.283768    5.958875    0.000000    0.000000    0.000000    -2.170941    2.544485    12.272656    5.118303    9.564806    7.285638    -8.844122    -17.420338    -23.359764    0.000000    0.000000    0.000000    
2.078028    92.205582    -16.034124    -0.081038    -3.774863    174.649078    -0.943007    -10.565267    0.529265    5.548446    14.214258    -0.075851    -3.092371    8.607255    3.939908    -4.538121    9.278199    4.040823    -3.933113    12.702783    -4.004861    -39.287598    66.733704    -29.714348    -12.621406    -36.134247    -37.411343    -12.672251    -38.041553    -17.002386    1.116437    18.506897    -1.634243    42.824764    62.435543    27.005295    1.590006    -34.785492    29.063929    24.607231    -31.669134    18.796371    0.407205    -29.852205    -7.220296    3.577602    22.836382    -7.882616    -7.797127    1.646629    5.876064    0.000000    0.000000    0.000000    -2.108001    2.456099    12.280189    5.081332    9.795665    7.435075    -8.816259    -17.632994    -23.356161    0.000000    0.000000    0.000000    
2.028337    92.133072    -16.374733    0.003503    -3.864972    174.406433    -0.950112    -10.535978    0.470367    5.660734    14.285316    -0.152018    -3.101097    8.634645    4.185578    -4.741552    9.173778    4.279655    -3.995721    12.712229    -4.000522    -39.104389    66.741310    -29.861425    -12.792446    -36.255024    -37.533508    -12.668104    -38.223148    -16.944700    1.024496    18.559917    -1.560670    42.346355    62.481747    27.510042    1.516121    -34.874550    28.925852    24.749735    -31.727831    18.768229    0.411699    -29.941721    -7.425480    3.755514    22.222034    -8.768781    -7.621660    1.651791    6.243811    0.000000    0.000000    0.000000    -2.046794    2.474457    12.407906    5.051166    9.971451    7.418825    -8.917193    -17.817772    -23.284592    0.000000    0.000000    0.000000    
1.972431    92.060638    -16.718140    0.064806    -3.986354    174.103287    -0.880288    -10.487730    0.444482    5.561134    14.270419    -0.171421    -2.982071    8.706775    4.476100    -4.960182    9.065650    4.553473    -3.963963    12.833553    -3.926404    -38.526012    66.890259    -30.332790    -12.934352    -36.432262    -37.797401    -12.487035    -38.511982    -16.598465    1.130859    18.527729    -1.376031    42.320110    62.296597    27.458824    1.528632    -34.768536    28.783670    24.728165    -31.664188    18.549204    0.444663    -30.066013    -7.471944    3.947203    21.695925    -9.728484    -7.803812    1.636497    6.727023    0.000000    0.000000    0.000000    -2.008080    2.424617    12.363022    4.982788    10.233324    7.716909    -8.969843    -18.035599    -23.331526    0.000000    0.000000    0.000000    
1.944099    91.970703    -17.066017    0.247590    -4.057456    173.912796    -0.877797    -10.391789    0.390413    5.753886    14.305580    -0.252255    -2.980117    8.750134    4.763210    -5.125730    8.899947    4.833286    -4.022038    12.811185    -4.050048    -38.378227    67.080360    -30.432354    -12.978116    -36.693798    -37.898701    -12.765347    -38.720726    -16.996222    1.132062    18.516878    -1.469327    41.689037    62.294140    28.062971    1.589626    -34.729828    28.648991    24.626318    -31.689371    18.345905    0.612307    -30.170174    -7.569970    4.024228    21.381588    -10.874837    -8.018580    1.318360    7.613497    0.000000    0.000000    0.000000    -1.829387    2.502475    12.285254    4.905177    10.389186    7.844525    -8.951002    -18.236532    -23.254147    0.000000    0.000000    0.000000    
1.870863    91.884590    -17.438023    0.284048    -4.158093    173.635757    -0.979234    -10.396407    0.375287    5.840764    14.446113    -0.276350    -2.826772    8.684048    5.011493    -5.314720    8.832399    5.067543    -3.943237    12.766627    -4.118889    -38.307529    67.004341    -30.570026    -13.161495    -36.670944    -38.005814    -12.649625    -38.784363    -16.865248    1.175240    18.394365    -1.343919    41.632584    62.175472    27.982203    1.646790    -34.601101    28.605116    24.586294    -31.623569    18.084610    0.587153    -30.272320    -7.628101    4.168228    21.079884    -10.900354    -8.074377    1.239497    7.384640    0.000000    0.000000    0.000000    -1.819938    2.486120    12.185367    4.816289    10.654535    7.934462    -8.915492    -18.520161    -23.043215    0.000000    0.000000    0.000000    
1.849102    91.783348    -17.816666    0.447238    -4.163295    173.338409    -0.972976    -10.319267    0.358248    5.925721    14.650373    -0.316217    -2.791382    8.549356    5.303325    -5.362796    8.808954    5.368410    -3.887511    12.742443    -4.143332    -37.758362    67.253288    -31.129702    -13.049966    -36.873589    -38.053864    -12.589267    -38.981194    -16.655464    1.201643    18.301662    -1.297388    41.299690    62.101948    28.306730    1.514376    -34.471535    28.370792    24.908678    -31.393269    18.181314    0.832284    -30.217144    -7.586195    4.117007    20.788233    -10.908476    -8.167256    1.088552    7.364208    0.000000    0.000000    0.000000    -1.659049    2.645450    12.315237    4.704825    10.772744    7.852682    -8.837461    -18.739426    -22.799547    0.000000    0.000000    0.000000    
1.779089    91.679993    -18.143101    0.569792    -4.387496    173.228760    -1.105320    -10.424755    0.335066    6.191913    14.869024    -0.372836    -2.558481    8.354790    5.455866    -5.635909    8.821882    5.497879    -3.683224    12.684392    -4.475697    -37.642960    67.172798    -31.464579    -13.163936    -36.934990    -38.116753    -12.500446    -39.088646    -16.652071    1.228914    18.213694    -1.446529    40.756336    62.004051    28.739305    1.570569    -34.345112    28.334845    24.818975    -31.330090    17.957697    0.911278    -30.511608    -7.862392    4.055599    20.784525    -11.248113    -8.221810    0.936672    7.745939    0.000000    0.000000    0.000000    -1.545074    2.511250    12.207058    4.641330    11.041305    8.063744    -8.868345    -18.984575    -22.839111    0.000000    0.000000    0.000000    
